<svg width="101" height="11" viewBox="0 0 101 11" fill="none" xmlns="http://www.w3.org/2000/svg">
<path d="M22.0137 0H40.7228V2.59064H26.5619V3.74206H40.7228V6.33269H26.5619V7.48411H40.7228V10.0747H22.0137V0Z" fill="#D8F602"/>
<path d="M41.5865 2.95037C41.5865 1.29589 42.7665 0 44.7238 0H60.2954V3.45456H46.6092C46.2636 3.45456 46.1344 3.71373 46.1344 3.88652C46.1344 4.0593 46.2636 4.31848 46.6092 4.31848H57.7333C59.6909 4.31848 60.8707 5.4699 60.8707 7.12438C60.8707 8.77886 59.6909 10.0747 57.7333 10.0747H42.1618V6.62018H55.8483C56.1936 6.62018 56.3227 6.36101 56.3227 6.18822C56.3227 6.01544 56.1936 5.75626 55.8483 5.75626H44.7238C42.7665 5.75626 41.5865 4.60485 41.5865 2.95037Z" fill="#D8F602"/>
<path d="M68.5833 3.45456H61.3014V0H80.4425V3.45456H73.1312V10.0747H68.5833V3.45456Z" fill="#D8F602"/>
<path d="M81.5943 10.0738V0.000522614H96.7055C99.2239 0.000522614 100.735 2.01473 100.735 4.03008C100.735 5.77095 99.5981 7.51295 97.67 7.95908L100.735 10.075H94.863L91.9412 8.06077H86.1413V10.075H81.5932L81.5943 10.0738ZM86.1422 3.45394V4.60537H95.5541C95.9578 4.60537 96.1875 4.38981 96.1875 4.03008C96.1875 3.67035 95.9566 3.45479 95.5541 3.45479H86.1422V3.45394Z" fill="#D8F602"/>
<path d="M22.4428 10.0736H17.0807L15.8607 8.6344H15.859L13.4164 5.7574H13.4197L12.5988 4.79037L11.2214 3.16082L5.34018 10.0736H0L8.54049 0H13.9026L22.4428 10.0736Z" fill="#D8F602"/>
</svg>
