<svg width="2502" height="600" viewBox="0 0 2502 600" fill="none" xmlns="http://www.w3.org/2000/svg">
<path d="M69.2287 351.759C53.0093 342.953 46.9999 322.665 55.8063 306.446L63.779 291.762L201.522 366.55C204.225 368.018 205.226 371.399 203.759 374.102L193.128 393.681C187.257 404.494 173.732 408.5 162.919 402.629L69.2287 351.759Z" fill="white"/>
<path d="M532.749 244.717C548.891 253.665 554.723 274.004 545.775 290.146L537.675 304.759L393.921 225.076C391.231 223.584 390.259 220.194 391.75 217.504L402.551 198.019C408.516 187.258 422.075 183.37 432.837 189.335L532.749 244.717Z" fill="white"/>
<path d="M221.648 547.678C205.429 538.872 199.42 518.584 208.226 502.365L216.199 487.681L350.906 560.821C353.609 562.289 354.611 565.67 353.143 568.373L342.513 587.952C336.642 598.764 323.117 602.771 312.304 596.9L221.648 547.678Z" fill="white"/>
<path d="M254.053 4.056C270.272 -4.75042 290.56 1.25899 299.366 17.4784L307.339 32.1623L67.5441 162.36L54.2562 137.887C48.3853 127.074 52.3916 113.549 63.2045 107.678L254.053 4.056Z" fill="white"/>
<path d="M532.213 490.425C548.432 481.619 554.442 461.331 545.635 445.112L537.663 430.428L291.884 563.875L305.172 588.348C311.043 599.161 324.568 603.167 335.381 597.296L532.213 490.425Z" fill="white"/>
<path d="M384.854 414.008C401.073 405.202 407.082 384.914 398.276 368.695L390.303 354.011L222.639 445.045C206.42 453.851 200.411 474.139 209.217 490.358L217.19 505.042L384.854 414.008Z" fill="white"/>
<path d="M379.174 150.645C395.394 141.838 401.403 121.551 392.597 105.331L384.624 90.6476L211.34 184.733C200.527 190.604 196.521 204.129 202.392 214.942L215.68 239.415L379.174 150.645Z" fill="white"/>
<path d="M379.608 56.4376C395.764 65.3605 401.627 85.6907 392.704 101.846L384.626 116.472L244.8 39.2447L258.263 14.8678C264.212 4.09737 277.765 0.18855 288.536 6.13718L379.608 56.4376Z" fill="white"/>
<path d="M390.214 376.325L398.292 361.699C407.215 345.544 401.352 325.214 385.196 316.291L216.515 223.126L203.051 247.503C197.103 258.273 201.012 271.827 211.782 277.775L390.214 376.325Z" fill="white"/>
<path d="M51 134.312C51 115.856 65.9615 100.895 84.4175 100.895H101.126V354.31H84.4175C65.9615 354.31 51 339.349 51 320.893V134.312Z" fill="white"/>
<path d="M396.963 86.6711C396.963 68.2151 382.001 53.2536 363.545 53.2536H346.836V153.506H363.545C382.001 153.506 396.963 138.544 396.963 120.089V86.6711Z" fill="white"/>
<path d="M402.532 347.049C402.532 328.593 387.571 313.631 369.115 313.631H352.406V418.061H369.115C387.571 418.061 402.532 403.099 402.532 384.643V347.049Z" fill="white"/>
<path d="M549.817 274.646C549.817 256.19 534.856 241.228 516.4 241.228H499.691V493.948H516.4C534.856 493.948 549.817 478.986 549.817 460.53V274.646Z" fill="white"/>
<path d="M203.111 475.151C203.111 456.695 218.072 441.733 236.528 441.733H253.237V551.036H236.528C218.072 551.036 203.111 536.075 203.111 517.619V475.151Z" fill="white"/>
<path d="M199.243 206.417C199.243 194.113 209.217 184.139 221.521 184.139H249.369V280.214H221.521C209.217 280.214 199.243 270.24 199.243 257.936V206.417Z" fill="white"/>
<path d="M699.244 361.786H747.209C747.209 377.318 754.365 390.718 768.679 401.985C783.297 413.253 802.026 418.887 824.866 418.887C849.838 418.887 868.263 414.624 880.14 406.097C892.017 397.265 897.955 385.54 897.955 370.923C897.955 347.473 879.683 332.246 843.138 325.242L781.469 313.822C756.497 309.254 737.616 299.661 724.825 285.043C712.339 270.425 706.096 251.848 706.096 229.312C706.096 202.513 716.45 180.282 737.159 162.618C757.868 144.651 785.581 135.667 820.298 135.667C858.67 135.667 888.362 145.412 909.375 164.903C930.693 184.088 941.352 208.604 941.352 238.448H893.387C893.387 222.917 886.687 209.517 873.288 198.249C859.888 186.982 842.225 181.348 820.298 181.348C799.589 181.348 783.297 186.068 771.42 195.509C759.847 204.645 754.061 215.913 754.061 229.312C754.061 251.848 770.049 266.314 802.026 272.709L852.274 281.845C884.555 287.631 908.157 297.681 923.08 311.994C938.306 326.003 945.92 345.646 945.92 370.923C945.92 398.331 935.413 420.867 914.4 438.53C893.387 455.889 863.542 464.568 824.866 464.568C786.19 464.568 755.584 454.823 733.048 435.332C710.512 415.842 699.244 391.327 699.244 361.786ZM989.317 460V140.235H1035V254.437H1037.28C1042.46 249.26 1048.09 244.692 1054.18 240.733C1068.8 231.596 1085.25 227.028 1103.52 227.028C1131.23 227.028 1153.31 235.708 1169.76 253.066C1186.51 270.12 1194.88 293.418 1194.88 322.958V460H1149.2V322.958C1149.2 308.035 1143.87 295.245 1133.21 284.586C1122.86 273.623 1109.91 268.141 1094.38 268.141C1077.63 268.141 1063.47 273.623 1051.9 284.586C1040.63 295.245 1035 308.035 1035 322.958V460H989.317ZM1296.33 402.442C1309.42 416.451 1325.87 423.455 1345.66 423.455C1365.46 423.455 1381.75 416.451 1394.54 402.442C1407.64 388.129 1414.18 369.248 1414.18 345.798C1414.18 322.349 1407.64 303.62 1394.54 289.611C1381.75 275.298 1365.46 268.141 1345.66 268.141C1325.87 268.141 1309.42 275.298 1296.33 289.611C1283.54 303.62 1277.14 322.349 1277.14 345.798C1277.14 369.248 1283.54 388.129 1296.33 402.442ZM1427.43 431.678C1406.11 453.605 1378.86 464.568 1345.66 464.568C1312.47 464.568 1285.06 453.605 1263.44 431.678C1242.12 409.751 1231.46 381.125 1231.46 345.798C1231.46 310.472 1242.12 281.845 1263.44 259.918C1285.06 237.992 1312.47 227.028 1345.66 227.028C1378.86 227.028 1406.11 237.992 1427.43 259.918C1449.05 281.845 1459.86 310.472 1459.86 345.798C1459.86 381.125 1449.05 409.751 1427.43 431.678ZM1670.03 460L1665.46 432.592H1663.18C1647.04 453.909 1623.44 464.568 1592.37 464.568C1561.92 464.568 1536.8 453.757 1517 432.135C1497.21 410.513 1487.31 381.734 1487.31 345.798C1487.31 309.863 1497.21 281.084 1517 259.462C1536.8 237.839 1561.92 227.028 1592.37 227.028C1605.77 227.028 1617.95 229.465 1628.92 234.337C1640.19 238.905 1647.49 242.864 1650.84 246.214C1654.19 249.26 1658.31 253.523 1663.18 259.005H1665.46V140.235H1711.14V460H1670.03ZM1551.72 401.985C1564.51 416.299 1580.34 423.455 1599.23 423.455C1618.11 423.455 1633.79 416.299 1646.28 401.985C1659.07 387.672 1665.46 368.943 1665.46 345.798C1665.46 322.653 1659.07 303.924 1646.28 289.611C1633.79 275.298 1618.11 268.141 1599.23 268.141C1580.34 268.141 1564.51 275.298 1551.72 289.611C1539.23 303.924 1532.99 322.653 1532.99 345.798C1532.99 368.943 1539.23 387.672 1551.72 401.985ZM1765.78 460V140.235H1811.46V254.437H1813.75C1818.92 249.26 1824.56 244.692 1830.65 240.733C1845.27 231.596 1861.71 227.028 1879.98 227.028C1907.7 227.028 1929.78 235.708 1946.22 253.066C1962.97 270.12 1971.35 293.418 1971.35 322.958V460H1925.66V322.958C1925.66 308.035 1920.33 295.245 1909.68 284.586C1899.32 273.623 1886.38 268.141 1870.85 268.141C1854.1 268.141 1839.94 273.623 1828.36 284.586C1817.1 295.245 1811.46 308.035 1811.46 322.958V460H1765.78ZM2088.03 460L2204.51 140.235H2277.6L2394.09 460H2341.56L2314.15 384.627H2167.97L2140.56 460H2088.03ZM2183.96 341.23H2298.16L2245.63 195.052H2236.49L2183.96 341.23ZM2419.18 460V140.235H2467.14V460H2419.18Z" fill="white"/>
</svg>
