<svg width="82" height="77" viewBox="0 0 82 77" fill="none" xmlns="http://www.w3.org/2000/svg">
<path d="M76.336 5.5591C69.9071 -0.382839 53.0305 7.83509 46.5246 11.4456C42.3809 13.7462 38.2789 16.4968 34.4712 19.3137C31.1597 21.7654 28.1332 24.5129 24.8787 27.02C27.0176 31.31 24.495 36.5724 19.641 37.0393C18.3821 37.1611 16.6192 36.3736 16.2894 36.5185C15.653 36.7974 11.5232 42.9767 10.8483 44.0754C7.09607 50.1899 -0.741248 65.2574 6.12526 71.0899C12.9101 76.8531 29.9023 69.6476 36.4298 65.1834L37.8228 68.8077C29.0532 73.4584 10.5833 81.8535 2.67814 72.5029C-4.3964 64.1355 4.21449 47.8507 9.29811 40.0843C10.0794 38.89 13.451 35.0715 13.6636 34.2779C13.7746 33.868 12.8885 32.7601 12.7375 31.9526C12.1643 28.8984 14.0597 24.687 17.3404 24.1415C19.0354 23.8595 22.1528 24.7933 22.4009 24.7225C23.2114 24.4929 29.1456 18.9346 30.5664 17.8513C40.2714 10.447 62.8356 -3.62964 75.1263 0.868419C87.6081 5.43736 80.1267 22.8271 75.7304 30.8971C72.4235 36.97 68.1612 42.4928 63.623 47.6827L61.0404 45.4638C65.2765 40.4325 69.4325 35.1809 72.6192 29.4131C75.6703 23.8934 81.9635 10.7645 76.3313 5.5591H76.336ZM16.8272 28.2959C14.0843 31.045 18.7858 35.6509 21.3746 32.643C23.9449 29.6551 19.6194 25.4976 16.8272 28.2959Z" fill="#D8F602"/>
<path d="M53.7089 28.5901V45.2586C51.8521 44.3788 50.3804 45.2201 48.6438 45.2756C44.7852 45.3973 40.8742 45.1076 37.0403 45.2586V28.5901H53.7089ZM50.4559 31.8431H40.2918V41.6004H50.4559V31.8431Z" fill="#D8F602"/>
<path d="M54.52 51.365L58.3801 48.1121L60.5868 50.3973L57.1042 54.1742C56.5264 54.2744 54.1672 51.8628 54.52 51.365Z" fill="#D8F602"/>
<path d="M45.9844 63.5469L41.7545 65.9709L39.893 63.3512L44.1153 60.7332L45.9844 63.5469Z" fill="#D8F602"/>
<path d="M51.0689 55.0583L53.2956 57.661L49.4386 60.6674L47.6542 58.1249L51.0689 55.0583Z" fill="#D8F602"/>
</svg>
