<svg width="82" height="80" viewBox="0 0 82 80" fill="none" xmlns="http://www.w3.org/2000/svg">
<path d="M15.8175 0V5.8035H66.599V0H82V15.3367H76.1722V64.6633H82V80H66.1825C66.7268 79.0809 67.0249 74.074 65.9932 73.887L15.8175 73.7817V80H0V64.6633H6.24432V15.3367H0V0H15.8175ZM12.4871 12.0218C11.5531 9.47978 12.323 6.72885 12.3152 4.16331C12.3152 3.67943 12.2867 3.62758 11.8624 3.31651H3.74534V11.3996C3.74534 11.5253 3.21839 11.717 3.32882 12.0218H12.4855H12.4871ZM78.6696 3.31651H69.9278V12.0218H78.6696V3.31651ZM65.9742 9.12001H15.816V15.3383H9.5716V64.6649L13.5173 64.6554L32.4649 46.219V31.5045H48.0742L65.9632 13.6824C66.7804 12.8214 66.9965 9.43893 65.9726 9.12158L65.9742 9.12001ZM72.4268 15.3367L69.3125 15.3461L50.5811 33.583L50.7593 46.6542C53.9714 48.838 67.0328 64.2234 69.3125 64.6539C70.2654 64.8345 71.4344 64.5675 72.4268 64.6633V15.3367ZM46.6196 34.8194H36.4216C35.475 35.396 36.2134 35.7102 36.2134 35.8563V44.1468C36.2134 44.2725 35.6865 44.4642 35.7969 44.7689H46.6196V34.821V34.8194ZM66.599 70.4668L66.2061 66.9209L47.8612 48.7123L35.6375 48.1797C33.1243 51.3784 16.2956 65.8746 15.827 68.195C15.685 68.8989 15.8728 69.7347 15.8175 70.4652H66.599V70.4668ZM12.4871 76.6851C11.0325 73.9216 13.399 70.5234 11.8624 67.9798H3.74534V76.6851H12.4871ZM78.6696 67.9798H69.9278V76.6851H78.6696V67.9798Z" fill="#D8F602"/>
</svg>
